<svg xmlns="http://www.w3.org/2000/svg" version="1.1" xmlns:xlink="http://www.w3.org/1999/xlink" xmlns:svgjs="http://svgjs.dev/svgjs" width="1500" height="1500" viewBox="0 0 1500 1500"><rect width="1500" height="1500" fill="#000000"></rect><g transform="matrix(0.6666666666666666,0,0,0.6666666666666666,249.39393939393938,645.0927955226726)"><svg viewBox="0 0 396 83" data-background-color="#4caf50" preserveAspectRatio="xMidYMid meet" height="314" width="1500" xmlns="http://www.w3.org/2000/svg" xmlns:xlink="http://www.w3.org/1999/xlink"><g id="tight-bounds" transform="matrix(1,0,0,1,0.2400000000000091,0.09537247588298214)"><svg viewBox="0 0 395.52 82.80925504823406" height="82.80925504823406" width="395.52"><g><svg viewBox="0 0 536.5203979272289 112.33023480616893" height="82.80925504823406" width="395.52"><g transform="matrix(1,0,0,1,141.00039792722896,6.839015245720205)"><svg viewBox="0 0 395.5199999999999 98.65220431472852" height="98.65220431472852" width="395.5199999999999"><g id="textblocktransform"><svg viewBox="0 0 395.5199999999999 98.65220431472852" height="98.65220431472852" width="395.5199999999999" id="textblock"><g><svg viewBox="0 0 395.5199999999999 60.722316374938636" height="60.722316374938636" width="395.5199999999999"><g transform="matrix(1,0,0,1,0,0)"><svg width="395.5199999999999" viewBox="4.13 -35.75 305.62 46.93" height="60.722316374938636" data-palette-color="#ffffff"><path d="M28.93 0L4.13 0 4.13-35 28.73-35 28.73-27.8 12.43-27.8 12.43-21.3 26.1-21.3 26.1-14.65 12.43-14.65 12.43-7.28 28.93-7.28 28.93 0ZM42.32 0.75L42.32 0.75Q39.77 0.75 37.75-0.24 35.72-1.23 34.55-3.06 33.37-4.9 33.37-7.48L33.37-7.48Q33.37-9.68 34.46-11.38 35.55-13.08 37.75-14.18 39.95-15.28 43.28-15.66 46.62-16.05 51.1-15.65L51.1-15.65 51.17-10.55Q48.8-10.98 46.88-10.99 44.97-11 43.63-10.66 42.3-10.33 41.57-9.63 40.85-8.93 40.85-7.9L40.85-7.9Q40.85-6.58 41.86-5.88 42.87-5.18 44.57-5.18L44.57-5.18Q46.05-5.18 47.23-5.7 48.42-6.23 49.13-7.24 49.85-8.25 49.85-9.73L49.85-9.73 49.85-15.55Q49.85-16.93 49.27-17.98 48.7-19.03 47.46-19.61 46.22-20.2 44.17-20.2L44.17-20.2Q42.2-20.2 40.25-19.61 38.3-19.03 36.75-17.85L36.75-17.85 34.65-23.48Q37.12-25.03 39.95-25.76 42.77-26.5 45.5-26.5L45.5-26.5Q49.1-26.5 51.84-25.35 54.57-24.2 56.12-21.8 57.67-19.4 57.67-15.65L57.67-15.65 57.67 0 50.6 0 50.6-2.7Q49.37-1.05 47.22-0.15 45.07 0.75 42.32 0.75ZM73.72 0.7L73.72 0.7Q70.17 0.7 67.23-0.18 64.3-1.05 62.17-2.65L62.17-2.65 64.72-8.28Q66.8-6.95 69.17-6.19 71.55-5.43 73.67-5.43L73.67-5.43Q75.62-5.43 76.65-5.96 77.67-6.5 77.67-7.53L77.67-7.53Q77.67-8.43 76.73-8.85 75.8-9.28 73.07-9.78L73.07-9.78Q67.92-10.65 65.53-12.66 63.15-14.68 63.15-18.18L63.15-18.18Q63.15-20.68 64.52-22.55 65.9-24.43 68.33-25.46 70.77-26.5 73.95-26.5L73.95-26.5Q77.05-26.5 79.81-25.68 82.57-24.85 84.55-23.38L84.55-23.38 82.07-17.75Q81.05-18.53 79.71-19.13 78.37-19.73 76.95-20.05 75.52-20.38 74.17-20.38L74.17-20.38Q72.5-20.38 71.46-19.86 70.42-19.35 70.42-18.45L70.42-18.45Q70.42-17.53 71.32-17.07 72.22-16.63 74.92-16.05L74.92-16.05Q80.37-14.95 82.65-13.09 84.92-11.23 84.92-7.88L84.92-7.88Q84.92-5.28 83.51-3.35 82.09-1.43 79.58-0.36 77.07 0.7 73.72 0.7ZM94.07 11.18L94.07 11.18Q92.32 11.18 90.64 10.83 88.97 10.48 87.57 9.7L87.57 9.7 89.29 2.85Q90.12 3.28 91.09 3.53 92.07 3.78 92.92 3.78L92.92 3.78Q94.29 3.78 95.26 3.2 96.22 2.63 96.64 1.3L96.64 1.3 97.02 0.1 87.12-25.5 96.02-25.5 101.67-8.03 107.14-25.5 115.82-25.5 105.24 2.53Q103.94 5.78 102.23 7.66 100.52 9.55 98.44 10.36 96.37 11.18 94.07 11.18ZM137.64 0.75L137.64 0.75Q133.59 0.75 130.02-0.5 126.44-1.75 123.73-4.11 121.02-6.48 119.47-9.85 117.92-13.23 117.92-17.48L117.92-17.48Q117.92-21.7 119.4-25.06 120.89-28.43 123.54-30.83 126.19-33.23 129.69-34.49 133.19-35.75 137.22-35.75L137.22-35.75Q139.06-35.75 141.09-35.46 143.12-35.18 145.22-34.45 147.31-33.73 149.34-32.4L149.34-32.4 145.89-25.98Q144.09-27.15 142.06-27.71 140.04-28.28 137.77-28.28L137.77-28.28Q135.14-28.28 133.04-27.53 130.94-26.78 129.48-25.36 128.02-23.95 127.24-21.95 126.47-19.95 126.47-17.43L126.47-17.43Q126.47-13.8 128.02-11.36 129.56-8.93 132.22-7.69 134.87-6.45 138.14-6.45L138.14-6.45Q139.44-6.45 140.62-6.68 141.79-6.9 142.69-7.2L142.69-7.2 142.69-13.4 135.54-13.4 135.54-20 149.97-20 149.97-2.15Q148.39-1.25 146.23-0.6 144.06 0.05 141.8 0.4 139.54 0.75 137.64 0.75ZM165.19 0L156.99 0 156.99-25.5 165.19-25.5 165.19-22.53Q166.34-24.5 168.24-25.4 170.14-26.3 172.36-26.3L172.36-26.3Q173.21-26.3 173.89-26.2 174.56-26.1 175.21-25.98L175.21-25.98 174.24-17.55Q173.39-17.85 172.44-18.04 171.49-18.23 170.54-18.23L170.54-18.23Q168.21-18.23 166.7-16.89 165.19-15.55 165.19-12.98L165.19-12.98 165.19 0ZM191.34 0.75L191.34 0.75Q187.16 0.75 183.96-1.09 180.76-2.93 178.95-6 177.14-9.08 177.14-12.75L177.14-12.75Q177.14-15.43 178.17-17.86 179.21-20.3 181.11-22.19 183.01-24.08 185.61-25.16 188.21-26.25 191.34-26.25L191.34-26.25Q195.51-26.25 198.71-24.41 201.91-22.58 203.71-19.5 205.51-16.43 205.51-12.75L205.51-12.75Q205.51-10.08 204.49-7.64 203.46-5.2 201.56-3.33 199.66-1.45 197.06-0.35 194.46 0.75 191.34 0.75ZM191.34-6.3L191.34-6.3Q193.09-6.3 194.49-7.09 195.89-7.88 196.69-9.33 197.49-10.78 197.49-12.75L197.49-12.75Q197.49-14.75 196.7-16.19 195.91-17.63 194.51-18.41 193.11-19.2 191.34-19.2L191.34-19.2Q189.56-19.2 188.16-18.41 186.76-17.63 185.96-16.19 185.16-14.75 185.16-12.75L185.16-12.75Q185.16-10.78 185.97-9.33 186.79-7.88 188.19-7.09 189.59-6.3 191.34-6.3ZM222.41 0.75L222.41 0.75Q218.36 0.75 215.17-1.01 211.98-2.78 210.13-5.84 208.28-8.9 208.28-12.75L208.28-12.75Q208.28-15.65 209.37-18.1 210.46-20.55 212.43-22.39 214.41-24.23 217.03-25.24 219.66-26.25 222.73-26.25L222.73-26.25Q225.63-26.25 228.11-25.46 230.58-24.68 232.56-23.1L232.56-23.1 228.96-17.03Q227.73-18.15 226.27-18.68 224.81-19.2 223.21-19.2L223.21-19.2Q221.11-19.2 219.58-18.45 218.06-17.7 217.25-16.25 216.43-14.8 216.43-12.78L216.43-12.78Q216.43-9.73 218.25-8.01 220.06-6.3 223.23-6.3L223.23-6.3Q225.03-6.3 226.62-6.96 228.21-7.63 229.53-8.9L229.53-8.9 232.86-2.7Q230.71-1.1 227.95-0.18 225.18 0.75 222.41 0.75ZM249.18 0.75L249.18 0.75Q244.98 0.75 241.81-0.94 238.63-2.63 236.86-5.66 235.08-8.7 235.08-12.78L235.08-12.78Q235.08-15.73 236.12-18.2 237.16-20.68 239.02-22.48 240.88-24.28 243.42-25.26 245.96-26.25 249.01-26.25L249.01-26.25Q252.36-26.25 254.98-25.06 257.61-23.88 259.32-21.76 261.03-19.65 261.68-16.79 262.33-13.93 261.73-10.58L261.73-10.58 242.58-10.58Q242.61-9.08 243.48-7.95 244.36-6.83 245.88-6.19 247.41-5.55 249.43-5.55L249.43-5.55Q251.68-5.55 253.71-6.14 255.73-6.73 257.58-7.95L257.58-7.95 260.16-2.4Q258.98-1.5 257.12-0.79 255.26-0.08 253.17 0.34 251.08 0.75 249.18 0.75ZM243.08-16.1L243.08-16.1 253.93-16.1Q253.88-18.03 252.51-19.18 251.13-20.33 248.78-20.33L248.78-20.33Q246.41-20.33 244.84-19.18 243.28-18.03 243.08-16.1ZM275 0L266.8 0 266.8-25.5 275-25.5 275-22.53Q276.15-24.5 278.05-25.4 279.95-26.3 282.18-26.3L282.18-26.3Q283.03-26.3 283.7-26.2 284.38-26.1 285.03-25.98L285.03-25.98 284.05-17.55Q283.2-17.85 282.25-18.04 281.3-18.23 280.35-18.23L280.35-18.23Q278.03-18.23 276.52-16.89 275-15.55 275-12.98L275-12.98 275 0ZM298.55 0.7L298.55 0.7Q295 0.7 292.06-0.18 289.13-1.05 287-2.65L287-2.65 289.55-8.28Q291.63-6.95 294-6.19 296.38-5.43 298.5-5.43L298.5-5.43Q300.45-5.43 301.48-5.96 302.5-6.5 302.5-7.53L302.5-7.53Q302.5-8.43 301.56-8.85 300.63-9.28 297.9-9.78L297.9-9.78Q292.75-10.65 290.36-12.66 287.98-14.68 287.98-18.18L287.98-18.18Q287.98-20.68 289.35-22.55 290.73-24.43 293.16-25.46 295.6-26.5 298.78-26.5L298.78-26.5Q301.88-26.5 304.64-25.68 307.4-24.85 309.38-23.38L309.38-23.38 306.9-17.75Q305.88-18.53 304.54-19.13 303.2-19.73 301.78-20.05 300.35-20.38 299-20.38L299-20.38Q297.33-20.38 296.29-19.86 295.25-19.35 295.25-18.45L295.25-18.45Q295.25-17.53 296.15-17.07 297.05-16.63 299.75-16.05L299.75-16.05Q305.2-14.95 307.48-13.09 309.75-11.23 309.75-7.88L309.75-7.88Q309.75-5.28 308.34-3.35 306.93-1.43 304.41-0.36 301.9 0.7 298.55 0.7Z" opacity="1" transform="matrix(1,0,0,1,0,0)" fill="#ffffff" class="wordmark-text-0" data-fill-palette-color="primary" id="text-0"></path></svg></g></svg></g><g transform="matrix(1,0,0,1,0,75.05739793546866)"><svg viewBox="0 0 232.20979199999994 23.59480637925987" height="23.59480637925987" width="232.20979199999994"><g transform="matrix(1,0,0,1,0,0)"><svg width="232.20979199999994" viewBox="1.5 -37 478.25 48.6" height="23.59480637925987" data-palette-color="#ffffff"><path d="M13.2 0.6L13.2 0.6Q9.55 0.6 6.55-0.38 3.55-1.35 1.5-2.95L1.5-2.95 3.9-6.95Q5.7-5.45 7.95-4.5 10.2-3.55 13.2-3.55L13.2-3.55Q16.8-3.55 18.9-5.05 21-6.55 21-9.1L21-9.1Q21-10.55 20.4-11.68 19.8-12.8 18.07-13.88 16.35-14.95 13-16.2L13-16.2Q9.4-17.6 7.25-19.03 5.1-20.45 4.17-22.28 3.25-24.1 3.25-26.6L3.25-26.6Q3.25-29.1 4.63-31.13 6-33.15 8.68-34.38 11.35-35.6 15.15-35.6L15.15-35.6Q18.25-35.6 20.73-34.98 23.2-34.35 25.55-33.2L25.55-33.2 23.8-29.15Q22.1-30.15 19.83-30.83 17.55-31.5 15.05-31.5L15.05-31.5Q11.75-31.5 9.85-30.2 7.95-28.9 7.95-26.85L7.95-26.85Q7.95-25.55 8.5-24.55 9.05-23.55 10.68-22.6 12.3-21.65 15.55-20.45L15.55-20.45Q19.45-19 21.73-17.4 24-15.8 24.95-13.93 25.9-12.05 25.9-9.65L25.9-9.65Q25.9-6.4 24.28-4.1 22.65-1.8 19.78-0.6 16.9 0.6 13.2 0.6ZM36.9 0L32.4 0 32.4-37 36.9-37 36.9-21.85Q38.3-23.9 40.45-25.25 42.6-26.6 45.5-26.6L45.5-26.6Q49.9-26.6 52.07-23.95 54.25-21.3 54.25-16.95L54.25-16.95 54.25 0 49.75 0 49.75-16.45Q49.75-19.25 48.45-20.95 47.15-22.65 44.8-22.65L44.8-22.65Q42.5-22.65 40.42-21.03 38.35-19.4 36.9-17.2L36.9-17.2 36.9 0ZM72.95 0.6L72.95 0.6Q69.25 0.6 66.3-1.13 63.35-2.85 61.67-5.93 60-9 60-13L60-13Q60-17.2 61.7-20.25 63.4-23.3 66.34-24.95 69.3-26.6 72.95-26.6L72.95-26.6Q76.59-26.6 79.52-24.95 82.45-23.3 84.17-20.28 85.9-17.25 85.9-13.1L85.9-13.1Q85.9-8.95 84.2-5.88 82.5-2.8 79.57-1.1 76.65 0.6 72.95 0.6ZM72.95-3.4L72.95-3.4Q76.9-3.4 79.09-6.08 81.3-8.75 81.3-13L81.3-13Q81.3-15.6 80.2-17.78 79.09-19.95 77.22-21.28 75.34-22.6 72.95-22.6L72.95-22.6Q69-22.6 66.8-20 64.59-17.4 64.59-13.1L64.59-13.1Q64.59-10.5 65.7-8.28 66.8-6.05 68.67-4.73 70.55-3.4 72.95-3.4ZM96.34 11L91.84 11 91.84-19.35Q91.84-21.05 91.02-21.78 90.19-22.5 88.89-22.5L88.89-22.5 89.84-26Q94.44-26 95.59-22.35L95.59-22.35Q96.09-23.1 97.22-24.1 98.34-25.1 100.02-25.85 101.69-26.6 103.84-26.6L103.84-26.6Q106.84-26.6 109.47-25.03 112.09-23.45 113.69-20.48 115.29-17.5 115.29-13.25L115.29-13.25Q115.29-9.1 113.69-5.98 112.09-2.85 109.52-1.13 106.94 0.6 103.94 0.6L103.94 0.6Q101.64 0.6 99.64-0.33 97.64-1.25 96.34-2.45L96.34-2.45 96.34 11ZM103.04-3.4L103.04-3.4Q106.44-3.4 108.57-6.08 110.69-8.75 110.69-13.1L110.69-13.1Q110.69-16.1 109.62-18.25 108.54-20.4 106.77-21.55 104.99-22.7 102.84-22.7L102.84-22.7Q100.69-22.7 98.97-21.63 97.24-20.55 96.34-19.3L96.34-19.3 96.34-6.5Q97.64-5.15 99.34-4.28 101.04-3.4 103.04-3.4ZM158.04 0L137.04 0 137.04-35 158.04-35 158.04-30.9 141.79-30.9 141.79-20.25 155.79-20.25 155.79-16.25 141.79-16.25 141.79-4.1 158.04-4.1 158.04 0ZM173.24 0.6L173.24 0.6Q169.99 0.6 167.34-1.05 164.69-2.7 163.11-5.73 161.54-8.75 161.54-12.85L161.54-12.85Q161.54-16.75 163.11-19.85 164.69-22.95 167.46-24.78 170.24-26.6 173.84-26.6L173.84-26.6Q176.09-26.6 177.91-25.83 179.74-25.05 181.09-23.9L181.09-23.9 181.09-26 185.19-26 185.19-6.3Q185.19-4.4 186.11-3.83 187.04-3.25 188.14-3.25L188.14-3.25 187.19 0.25Q182.39 0.25 181.39-3.65L181.39-3.65Q180.24-2.05 178.26-0.73 176.29 0.6 173.24 0.6ZM174.24-3.4L174.24-3.4Q176.14-3.4 177.84-4.33 179.54-5.25 180.69-6.65L180.69-6.65 180.69-20.6Q179.34-21.55 177.71-22.13 176.09-22.7 174.29-22.7L174.29-22.7Q171.89-22.7 170.06-21.48 168.24-20.25 167.19-18.07 166.14-15.9 166.14-13L166.14-13Q166.14-10.2 167.19-8.03 168.24-5.85 170.09-4.63 171.94-3.4 174.24-3.4ZM201.13 0.6L201.13 0.6Q198.18 0.6 195.81-0.15 193.43-0.9 191.88-2.1L191.88-2.1 193.78-5.85Q195.08-4.75 197.06-4.03 199.03-3.3 201.28-3.3L201.28-3.3Q204.08-3.3 205.51-4.23 206.93-5.15 206.93-6.6L206.93-6.6Q206.93-7.65 206.41-8.45 205.88-9.25 204.48-10.03 203.08-10.8 200.43-11.7L200.43-11.7Q196.78-12.95 194.96-14.68 193.13-16.4 193.13-19.45L193.13-19.45Q193.13-22.45 195.76-24.53 198.38-26.6 203.03-26.6L203.03-26.6Q205.53-26.6 207.48-26.08 209.43-25.55 210.98-24.75L210.98-24.75 209.73-21.05Q208.38-21.85 206.66-22.35 204.93-22.85 202.83-22.85L202.83-22.85Q200.23-22.85 198.88-21.8 197.53-20.75 197.53-19.5L197.53-19.5Q197.53-18.3 198.58-17.45 199.63-16.6 202.68-15.6L202.68-15.6Q207.63-13.95 209.58-11.95 211.53-9.95 211.53-6.95L211.53-6.95Q211.53-3.45 208.71-1.43 205.88 0.6 201.13 0.6ZM218.18 11.6L218.18 11.6Q216.68 11.6 215.56 11.3 214.43 11 213.78 10.6L213.78 10.6 214.78 6.85Q215.38 7.2 216.28 7.45 217.18 7.7 218.28 7.7L218.28 7.7Q220.38 7.7 222.03 6.35 223.68 5 225.18 1.05L225.18 1.05 226.33-1.95 223.93-1.95 213.78-24.8 217.78-26.6 227.48-4.95 235.03-26.4 239.18-24.8 229.63 1.3Q228.18 5.3 226.48 7.55 224.78 9.8 222.73 10.7 220.68 11.6 218.18 11.6ZM239.63 8L239.63 8 237.18 6.6Q239.18 4.05 240.4 1.45 241.63-1.15 242.28-4.5L242.28-4.5 246.68-3.25Q246.18 0.55 244.3 3.4 242.43 6.25 239.63 8ZM291.17 0L270.17 0 270.17-35 291.17-35 291.17-30.9 274.92-30.9 274.92-20.25 288.92-20.25 288.92-16.25 274.92-16.25 274.92-4.1 291.17-4.1 291.17 0ZM306.37 0.6L306.37 0.6Q303.12 0.6 300.47-1.05 297.82-2.7 296.25-5.73 294.67-8.75 294.67-12.85L294.67-12.85Q294.67-16.75 296.25-19.85 297.82-22.95 300.6-24.78 303.37-26.6 306.97-26.6L306.97-26.6Q309.22-26.6 311.05-25.83 312.87-25.05 314.22-23.9L314.22-23.9 314.22-26 318.32-26 318.32-6.3Q318.32-4.4 319.25-3.83 320.17-3.25 321.27-3.25L321.27-3.25 320.32 0.25Q315.52 0.25 314.52-3.65L314.52-3.65Q313.37-2.05 311.4-0.73 309.42 0.6 306.37 0.6ZM307.37-3.4L307.37-3.4Q309.27-3.4 310.97-4.33 312.67-5.25 313.82-6.65L313.82-6.65 313.82-20.6Q312.47-21.55 310.85-22.13 309.22-22.7 307.42-22.7L307.42-22.7Q305.02-22.7 303.2-21.48 301.37-20.25 300.32-18.07 299.27-15.9 299.27-13L299.27-13Q299.27-10.2 300.32-8.03 301.37-5.85 303.22-4.63 305.07-3.4 307.37-3.4ZM336.37 0.6L336.37 0.6Q332.62 0.6 330.44-1.88 328.27-4.35 328.27-8.95L328.27-8.95 328.27-21.15 323.77-21.15 323.77-25.05 328.37-25.05 329.32-33.25 332.77-33.25 332.77-25.05 339.97-25.05 339.97-21.15 332.77-21.15 332.77-8.6Q332.77-5.7 333.99-4.55 335.22-3.4 336.92-3.4L336.92-3.4Q338.17-3.4 339.29-3.8 340.42-4.2 341.37-4.75L341.37-4.75 342.62-1.15Q341.62-0.55 339.92 0.03 338.22 0.6 336.37 0.6ZM367.36 0L362.61 0 362.61-35 383.36-35 383.36-30.9 367.36-30.9 367.36-20.2 380.71-20.2 380.71-16.3 367.36-16.3 367.36 0ZM393.36 0L388.86 0 388.86-26 393.21-26 393.21-20.35Q393.86-22 394.96-23.43 396.06-24.85 397.71-25.73 399.36-26.6 401.56-26.6L401.56-26.6Q402.31-26.6 403.06-26.53 403.81-26.45 404.31-26.3L404.31-26.3 402.96-21.65Q402.01-22.05 400.71-22.05L400.71-22.05Q398.86-22.05 397.19-21 395.51-19.95 394.44-17.75 393.36-15.55 393.36-12.15L393.36-12.15 393.36 0ZM417.71 0.6L417.71 0.6Q412.11 0.6 408.83-2.98 405.56-6.55 405.56-13L405.56-13Q405.56-16.9 407.03-19.98 408.51-23.05 411.16-24.83 413.81-26.6 417.31-26.6L417.31-26.6Q421.06-26.6 423.53-24.98 426.01-23.35 427.26-20.6 428.51-17.85 428.51-14.55L428.51-14.55Q428.51-12.8 428.36-11.15L428.36-11.15 410.16-11.15Q410.61-7.5 412.71-5.45 414.81-3.4 418.26-3.4L418.26-3.4Q420.51-3.4 422.31-3.88 424.11-4.35 425.76-5.1L425.76-5.1 426.81-1.25Q425.01-0.45 422.76 0.08 420.51 0.6 417.71 0.6ZM410.11-14.8L410.11-14.8 424.36-14.8Q424.36-18.6 422.46-20.65 420.56-22.7 417.21-22.7L417.21-22.7Q414.31-22.7 412.41-20.68 410.51-18.65 410.11-14.8ZM441.51 0.6L441.51 0.6Q438.56 0.6 436.18-0.15 433.81-0.9 432.26-2.1L432.26-2.1 434.16-5.85Q435.46-4.75 437.43-4.03 439.41-3.3 441.66-3.3L441.66-3.3Q444.46-3.3 445.88-4.23 447.31-5.15 447.31-6.6L447.31-6.6Q447.31-7.65 446.78-8.45 446.26-9.25 444.86-10.03 443.46-10.8 440.81-11.7L440.81-11.7Q437.16-12.95 435.33-14.68 433.51-16.4 433.51-19.45L433.51-19.45Q433.51-22.45 436.13-24.53 438.76-26.6 443.41-26.6L443.41-26.6Q445.91-26.6 447.86-26.08 449.81-25.55 451.36-24.75L451.36-24.75 450.11-21.05Q448.76-21.85 447.03-22.35 445.31-22.85 443.21-22.85L443.21-22.85Q440.61-22.85 439.26-21.8 437.91-20.75 437.91-19.5L437.91-19.5Q437.91-18.3 438.96-17.45 440.01-16.6 443.06-15.6L443.06-15.6Q448.01-13.95 449.96-11.95 451.91-9.95 451.91-6.95L451.91-6.95Q451.91-3.45 449.08-1.43 446.26 0.6 441.51 0.6ZM462.4 0L457.9 0 457.9-37 462.4-37 462.4-21.85Q463.8-23.9 465.95-25.25 468.1-26.6 471-26.6L471-26.6Q475.4-26.6 477.58-23.95 479.75-21.3 479.75-16.95L479.75-16.95 479.75 0 475.25 0 475.25-16.45Q475.25-19.25 473.95-20.95 472.65-22.65 470.3-22.65L470.3-22.65Q468-22.65 465.93-21.03 463.85-19.4 462.4-17.2L462.4-17.2 462.4 0Z" opacity="1" transform="matrix(1,0,0,1,0,0)" fill="#ffffff" class="slogan-text-1" data-fill-palette-color="secondary" id="text-1"></path></svg></g></svg></g></svg></g></svg></g><g><svg viewBox="0 0 112.33023480616893 112.33023480616893" height="112.33023480616893" width="112.33023480616893"><g><svg></svg></g><g id="icon-0"><svg viewBox="0 0 112.33023480616893 112.33023480616893" height="112.33023480616893" width="112.33023480616893"><g><path d="M0 56.165c0-31.019 25.146-56.165 56.165-56.165 31.019 0 56.165 25.146 56.165 56.165 0 31.019-25.146 56.165-56.165 56.165-31.019 0-56.165-25.146-56.165-56.165zM56.165 106.854c27.995 0 50.689-22.694 50.689-50.689 0-27.995-22.694-50.689-50.689-50.689-27.995 0-50.689 22.694-50.689 50.689 0 27.995 22.694 50.689 50.689 50.689z" data-fill-palette-color="accent" fill="#ffffff" stroke="transparent"></path><ellipse rx="55.60346622905362" ry="55.60346622905362" cx="56.165117403084466" cy="56.165117403084466" fill="#ffffff" stroke="transparent" stroke-width="0" fill-opacity="1" data-fill-palette-color="accent"></ellipse></g><g transform="matrix(1,0,0,1,24.88813728394336,31.75628432032243)"><svg viewBox="0 0 62.55396023828221 48.817666165524074" height="48.817666165524074" width="62.55396023828221"><g><svg xmlns="http://www.w3.org/2000/svg" xmlns:xlink="http://www.w3.org/1999/xlink" version="1.1" x="0" y="0" viewBox="2.4274807068205337 12.873298545939274 95.14589490192789 74.25270145406073" enable-background="new 0 0 100 100" xml:space="preserve" height="48.817666165524074" width="62.55396023828221" class="icon-dxe-0" data-fill-palette-color="quaternary" id="dxe-0"><path d="M97.017 19.533C96.35 18.736 90.316 11.777 84.208 13.022 80.896 13.698 78.473 16.495 77.004 21.336A3 3 0 0 0 76.959 21.503L75.872 26.315H4.813A2.387 2.387 0 0 0 2.488 29.236L8.777 56.604A2.39 2.39 0 0 0 10.938 58.45L67.716 62.397 66.233 68.957H16.47C16.222 68.957 15.984 68.994 15.76 69.064 11.299 69.628 7.837 73.446 7.837 78.059 7.837 83.059 11.906 87.126 16.907 87.126 21.907 87.126 25.976 83.059 25.976 78.059A9 9 0 0 0 24.874 73.729H56.83A9 9 0 0 0 55.728 78.059C55.728 83.059 59.795 87.126 64.796 87.126S73.866 83.059 73.866 78.059A9.06 9.06 0 0 0 70.634 71.124L81.595 22.641C82.233 20.571 83.362 18.068 85.157 17.699 87.776 17.158 91.813 20.765 93.358 22.597A2.383 2.383 0 0 0 96.718 22.894 2.385 2.385 0 0 0 97.017 19.533M7.81 31.089H74.703L68.728 57.682 13.031 53.81zM16.906 82.354A4.3 4.3 0 0 1 12.61 78.059 4.3 4.3 0 0 1 16.906 73.762 4.3 4.3 0 0 1 21.201 78.059 4.3 4.3 0 0 1 16.906 82.354M64.797 82.354A4.3 4.3 0 0 1 60.502 78.059 4.3 4.3 0 0 1 64.797 73.762 4.3 4.3 0 0 1 69.094 78.059 4.3 4.3 0 0 1 64.797 82.354" fill="#000000" data-fill-palette-color="quaternary"></path></svg></g></svg></g></svg></g></svg></g></svg></g><defs></defs></svg><rect width="395.52" height="82.80925504823406" fill="none" stroke="none" visibility="hidden"></rect></g></svg></g></svg>